<svg width="184" height="184" viewBox="0 0 184 184" fill="none" xmlns="http://www.w3.org/2000/svg">
<circle cx="108" cy="7" r="7" fill="#EDECEC"/>
<circle cx="142" cy="7" r="7" fill="#EDECEC"/>
<circle cx="176" cy="7" r="7" fill="#EDECEC"/>
<circle cx="108" cy="41" r="7" fill="#EDECEC"/>
<circle cx="142" cy="41" r="7" fill="#EDECEC"/>
<circle cx="176" cy="41" r="7" fill="#EDECEC"/>
<circle cx="108" cy="75" r="7" fill="#EDECEC"/>
<circle cx="142" cy="75" r="7" fill="#EDECEC"/>
<circle cx="176" cy="75" r="7" fill="#EDECEC"/>
<circle cx="7" cy="7" r="7" fill="#EDECEC"/>
<circle cx="41" cy="7" r="7" fill="#EDECEC"/>
<circle cx="75" cy="7" r="7" fill="#EDECEC"/>
<circle cx="7" cy="41" r="7" fill="#EDECEC"/>
<circle cx="41" cy="41" r="7" fill="#EDECEC"/>
<circle cx="75" cy="41" r="7" fill="#EDECEC"/>
<circle cx="7" cy="75" r="7" fill="#EDECEC"/>
<circle cx="41" cy="75" r="7" fill="#EDECEC"/>
<circle cx="75" cy="75" r="7" fill="#EDECEC"/>
<circle cx="7" cy="109" r="7" fill="#EDECEC"/>
<circle cx="41" cy="109" r="7" fill="#EDECEC"/>
<circle cx="75" cy="109" r="7" fill="#EDECEC"/>
<circle cx="7" cy="143" r="7" fill="#EDECEC"/>
<circle cx="41" cy="143" r="7" fill="#EDECEC"/>
<circle cx="75" cy="143" r="7" fill="#EDECEC"/>
<circle cx="7" cy="177" r="7" fill="#EDECEC"/>
<circle cx="41" cy="177" r="7" fill="#EDECEC"/>
<circle cx="75" cy="177" r="7" fill="#EDECEC"/>
<circle cx="109" cy="109" r="7" fill="#EDECEC"/>
<circle cx="143" cy="109" r="7" fill="#EDECEC"/>
<circle cx="177" cy="109" r="7" fill="#EDECEC"/>
<circle cx="109" cy="143" r="7" fill="#EDECEC"/>
<circle cx="143" cy="143" r="7" fill="#EDECEC"/>
<circle cx="177" cy="143" r="7" fill="#EDECEC"/>
<circle cx="109" cy="177" r="7" fill="#EDECEC"/>
<circle cx="143" cy="177" r="7" fill="#EDECEC"/>
<circle cx="177" cy="177" r="7" fill="#EDECEC"/>
</svg>
